<svg xmlns="http://www.w3.org/2000/svg" viewBox="0 0 512 512">
  <rect width="512" height="512" fill="#ffffff"/>
  <text x="448" y="160" font-family="Roboto, 'Noto Sans CJK JP', sans-serif" font-size="100" font-weight="300" fill="#202124" text-anchor="end">1234</text>

  <g font-family="Roboto, 'Noto Sans CJK JP', sans-serif" text-anchor="middle">
    <circle cx="100" cy="260" r="42" fill="#c5e1a5"/>
    <text x="100" y="276" font-size="34" font-weight="500" fill="#33691e">AC</text>
    <circle cx="210" cy="260" r="42" fill="#d3e3fd"/>
    <text x="210" y="276" font-size="32" font-weight="500" fill="#185abc">%</text>
    <circle cx="320" cy="260" r="42" fill="#d3e3fd"/>
    <text x="320" y="277" font-size="44" font-weight="500" fill="#185abc">÷</text>
    <circle cx="430" cy="260" r="42" fill="#d3e3fd"/>
    <text x="430" y="278" font-size="46" font-weight="500" fill="#185abc">×</text>

    <circle cx="100" cy="360" r="42" fill="#f3f4f8"/>
    <text x="100" y="376" font-size="42" font-weight="400" fill="#202124">1</text>
    <circle cx="210" cy="360" r="42" fill="#f3f4f8"/>
    <text x="210" y="376" font-size="42" font-weight="400" fill="#202124">2</text>
    <circle cx="320" cy="360" r="42" fill="#f3f4f8"/>
    <text x="320" y="376" font-size="42" font-weight="400" fill="#202124">3</text>
    <circle cx="430" cy="360" r="42" fill="#d3e3fd"/>
    <text x="430" y="378" font-size="46" font-weight="500" fill="#185abc">+</text>

    <circle cx="100" cy="460" r="42" fill="#f3f4f8"/>
    <text x="100" y="476" font-size="42" font-weight="400" fill="#202124">0</text>
    <circle cx="210" cy="460" r="42" fill="#f3f4f8"/>
    <text x="210" y="480" font-size="46" font-weight="500" fill="#202124">.</text>
    <rect x="278" y="418" width="84" height="84" rx="18" fill="#1a3c6e"/>
    <g fill="none" stroke="#ffffff" stroke-width="3.5" stroke-linecap="round" stroke-linejoin="round">
      <path d="M348 432 L308 432 L290 460 L308 488 L348 488 L348 432 Z"/>
      <line x1="316" y1="446" x2="334" y2="474"/>
      <line x1="334" y1="446" x2="316" y2="474"/>
    </g>
    <circle cx="430" cy="460" r="42" fill="#aecbfa"/>
    <text x="430" y="478" font-size="50" font-weight="500" fill="#062e6f">=</text>
  </g>
</svg>
