<svg xmlns="http://www.w3.org/2000/svg" viewBox="0 0 512 512">
  <rect width="512" height="512" fill="#d0bcff"/>
  <text x="448" y="170" font-family="Roboto, 'Noto Sans CJK JP', sans-serif" font-size="110" font-weight="400" fill="#1d1b20" text-anchor="end">1234</text>

  <g font-family="Roboto, 'Noto Sans CJK JP', sans-serif" text-anchor="middle">
    <rect x="60" y="225" width="80" height="80" rx="24" fill="#ece6f0"/>
    <text x="100" y="280" font-size="42" font-weight="400" fill="#1d1b20">7</text>
    <rect x="170" y="225" width="80" height="80" rx="24" fill="#ece6f0"/>
    <text x="210" y="280" font-size="42" font-weight="400" fill="#1d1b20">8</text>
    <rect x="280" y="225" width="80" height="80" rx="24" fill="#ece6f0"/>
    <text x="320" y="280" font-size="42" font-weight="400" fill="#1d1b20">9</text>
    <rect x="390" y="225" width="80" height="80" rx="24" fill="#e8def8"/>
    <text x="430" y="282" font-size="48" font-weight="500" fill="#21005d">÷</text>

    <rect x="60" y="320" width="80" height="80" rx="24" fill="#ece6f0"/>
    <text x="100" y="375" font-size="42" font-weight="400" fill="#1d1b20">4</text>
    <rect x="170" y="320" width="80" height="80" rx="24" fill="#ece6f0"/>
    <text x="210" y="375" font-size="42" font-weight="400" fill="#1d1b20">5</text>
    <rect x="280" y="320" width="80" height="80" rx="24" fill="#ece6f0"/>
    <text x="320" y="375" font-size="42" font-weight="400" fill="#1d1b20">6</text>
    <rect x="390" y="320" width="80" height="80" rx="24" fill="#e8def8"/>
    <text x="430" y="378" font-size="50" font-weight="500" fill="#21005d">×</text>

    <rect x="60" y="415" width="80" height="80" rx="24" fill="#ece6f0"/>
    <text x="100" y="470" font-size="42" font-weight="400" fill="#1d1b20">1</text>
    <rect x="170" y="415" width="80" height="80" rx="24" fill="#ece6f0"/>
    <text x="210" y="470" font-size="42" font-weight="400" fill="#1d1b20">2</text>
    <rect x="280" y="415" width="80" height="80" rx="24" fill="#ece6f0"/>
    <text x="320" y="470" font-size="42" font-weight="400" fill="#1d1b20">3</text>
    <rect x="390" y="415" width="80" height="80" rx="24" fill="#6750a4"/>
    <text x="430" y="473" font-size="52" font-weight="500" fill="#fff">=</text>
  </g>
</svg>
