<svg xmlns="http://www.w3.org/2000/svg" viewBox="0 0 512 512">
  <rect width="512" height="512" fill="#1f1f1f"/>
  <text x="448" y="170" font-family="Roboto, 'Noto Sans CJK JP', sans-serif" font-size="110" font-weight="400" fill="#e3e3e3" text-anchor="end">1234</text>

  <g font-family="Roboto, 'Noto Sans CJK JP', sans-serif" text-anchor="middle">
    <circle cx="100" cy="265" r="40" fill="#3c4043"/>
    <text x="100" y="280" font-size="42" font-weight="400" fill="#e3e3e3">7</text>
    <circle cx="210" cy="265" r="40" fill="#3c4043"/>
    <text x="210" y="280" font-size="42" font-weight="400" fill="#e3e3e3">8</text>
    <circle cx="320" cy="265" r="40" fill="#3c4043"/>
    <text x="320" y="280" font-size="42" font-weight="400" fill="#e3e3e3">9</text>
    <circle cx="430" cy="265" r="40" fill="#004a77"/>
    <text x="430" y="283" font-size="48" font-weight="500" fill="#d3e3fd">÷</text>

    <circle cx="100" cy="360" r="40" fill="#3c4043"/>
    <text x="100" y="375" font-size="42" font-weight="400" fill="#e3e3e3">4</text>
    <circle cx="210" cy="360" r="40" fill="#3c4043"/>
    <text x="210" y="375" font-size="42" font-weight="400" fill="#e3e3e3">5</text>
    <circle cx="320" cy="360" r="40" fill="#3c4043"/>
    <text x="320" y="375" font-size="42" font-weight="400" fill="#e3e3e3">6</text>
    <circle cx="430" cy="360" r="40" fill="#004a77"/>
    <text x="430" y="378" font-size="50" font-weight="500" fill="#d3e3fd">×</text>

    <circle cx="100" cy="455" r="40" fill="#3c4043"/>
    <text x="100" y="470" font-size="42" font-weight="400" fill="#e3e3e3">1</text>
    <circle cx="210" cy="455" r="40" fill="#3c4043"/>
    <text x="210" y="470" font-size="42" font-weight="400" fill="#e3e3e3">2</text>
    <circle cx="320" cy="455" r="40" fill="#3c4043"/>
    <text x="320" y="470" font-size="42" font-weight="400" fill="#e3e3e3">3</text>
    <circle cx="430" cy="455" r="40" fill="#a8c7fa"/>
    <text x="430" y="473" font-size="52" font-weight="500" fill="#062e6f">=</text>
  </g>
</svg>
